<svg id="Layer_1" enable-background="new 0 0 512.019 512.019" height="512" viewBox="0 0 512.019 512.019" width="512" xmlns="http://www.w3.org/2000/svg"><g id="XMLID_2016_"><path id="XMLID_1950_" d="m351.819 432.443 44.311 11.888c14.402 3.864 29.21-4.679 33.074-19.081l71.876-267.905c3.864-14.402-4.679-29.21-19.081-33.074l-44.311-11.888c-14.402-3.864-29.21 4.679-33.074 19.081l-71.876 267.905c-3.864 14.402 4.679 29.21 19.081 33.074z" fill="#ff7b79"/><path id="XMLID_1949_" d="m191.034 408.517c43.862-23.068 96.639-23.068 140.502 0l76.554-284.833c-90.393-54.844-203.873-56.499-295.659-4.964z" fill="#fff"/><g id="XMLID_1065_"><path id="XMLID_1981_" d="m170.873 431.135-54.519 14.608c-14.791 3.963-29.995-4.815-33.959-19.606l-71.434-266.599c-3.963-14.791 4.815-29.995 19.606-33.959l54.519-14.608c14.791-3.963 29.995 4.815 33.959 19.606l71.435 266.599c3.962 14.791-4.815 29.995-19.607 33.959z" fill="#80b6ff"/><path id="XMLID_2014_" d="m45.68 168.139h55.948v234.911h-55.948z" fill="#fff" transform="matrix(.966 -.259 .259 .966 -71.408 28.795)"/></g><g id="XMLID_453_"><path id="XMLID_476_" d="m507.051 131.859c-4.939-8.561-12.916-14.685-22.462-17.246l-44.31-11.888c-9.55-2.563-19.519-1.252-28.078 3.687-2.235 1.289-4.299 2.79-6.182 4.468-16.684-9.499-34.07-17.301-51.913-23.389l1.608-10.166c.863-5.455-2.859-10.577-8.314-11.439-5.453-.857-10.577 2.86-11.439 8.315l-1.172 7.408c-20.815-5.584-42.11-8.916-63.503-9.991v-6.304c0-5.523-4.478-10-10-10-5.523 0-10 4.477-10 10v5.955c-21.448.332-42.876 2.931-63.904 7.802l-.77-4.87c-.863-5.455-5.985-9.174-11.439-8.315-5.455.863-9.178 5.984-8.315 11.439l1.096 6.931c-18.617 5.637-36.812 13.115-54.316 22.42-.815-.558-1.647-1.096-2.512-1.595-8.728-5.039-18.894-6.378-28.628-3.769l-54.519 14.608c-9.734 2.608-17.869 8.851-22.908 17.578-5.039 8.728-6.377 18.895-3.769 28.628l71.435 266.599c2.608 9.734 8.851 17.869 17.578 22.908 5.813 3.356 12.265 5.071 18.802 5.071 3.277 0 6.576-.431 9.826-1.302l54.519-14.608c9.734-2.608 17.869-8.851 22.908-17.578 1.463-2.535 2.604-5.193 3.438-7.925 6.279-3.045 12.728-5.595 19.291-7.655l.034.213c.779 4.926 5.031 8.439 9.865 8.439.519 0 1.045-.041 1.574-.124 5.455-.863 9.178-5.984 8.315-11.439l-.27-1.709c4.204-.685 8.431-1.179 12.669-1.48v1.112c0 5.523 4.477 10 10 10 5.522 0 10-4.477 10-10v-1.112c4.238.301 8.465.795 12.669 1.48l-.27 1.709c-.863 5.455 2.859 10.577 8.314 11.439.529.084 1.056.125 1.575.125 4.833 0 9.086-3.514 9.864-8.439l.034-.214c6.618 2.077 13.119 4.65 19.448 7.728.828 3.284 2.107 6.476 3.847 9.491 4.939 8.561 12.916 14.686 22.462 17.247l44.312 11.888c3.199.858 6.413 1.268 9.578 1.268 16.33 0 31.316-10.911 35.745-27.417l24.195-90.185c1.432-5.334-1.732-10.819-7.067-12.25-5.331-1.428-10.817 1.734-12.249 7.067l-24.195 90.185c-2.43 9.053-11.771 14.443-20.825 12.014l-44.311-11.888c-9.054-2.429-14.443-11.771-12.015-20.825l71.876-267.905c1.177-4.386 3.991-8.051 7.925-10.32 3.933-2.27 8.513-2.871 12.9-1.694l44.311 11.888c4.386 1.176 8.051 3.991 10.32 7.924s2.871 8.514 1.694 12.9l-24.357 90.788c-1.432 5.334 1.732 10.819 7.067 12.25 5.335 1.434 10.818-1.732 12.249-7.067l24.357-90.788c2.561-9.544 1.252-19.516-3.688-28.076zm-388.224 252.877-34.682 9.293-6.988-26.08 34.682-9.293zm-78.136-152.882 34.682-9.293 6.979 26.046-34.682 9.293zm12.155 45.365 34.682-9.293 6.979 26.047-34.682 9.293zm12.156 45.365 34.682-9.293 6.979 26.046-34.682 9.293zm-29.487-110.048-6.992-26.094 34.682-9.293 6.992 26.094zm143.534 200.68c-2.368 4.101-6.19 7.034-10.764 8.259l-54.519 14.608c-9.438 2.528-19.181-3.093-21.711-12.535l-2.733-10.201 44.341-11.881c5.334-1.429 8.5-6.913 7.071-12.248l-60.799-226.906c-.687-2.562-2.362-4.746-4.659-6.072-2.296-1.325-5.024-1.685-7.588-.999l-44.341 11.881-2.726-10.173c-1.226-4.574-.597-9.351 1.771-13.452s6.19-7.034 10.764-8.259l54.519-14.608c1.527-.409 3.077-.612 4.617-.612 3.072 0 6.104.806 8.834 2.383 4.101 2.368 7.034 6.19 8.26 10.764l71.435 266.599c1.225 4.574.596 9.351-1.772 13.452zm20.764-19.843-71.109-265.384c-.517-1.931-1.183-3.795-1.977-5.588 14.372-7.371 29.223-13.429 44.384-18.183l44.836 283.486c-5.45 1.601-10.838 3.478-16.134 5.669zm35.679-10.11-44.977-284.38c19.986-4.736 40.367-7.276 60.771-7.614v290.213c-5.284.329-10.554.93-15.794 1.781zm35.794-1.781v-289.836c20.347 1.095 40.591 4.379 60.359 9.842l-44.566 281.775c-5.239-.851-10.509-1.452-15.793-1.781zm52.579 12.368c-5.654-2.388-11.41-4.433-17.241-6.146l44.307-280.139c15.211 5.401 30.053 12.138 44.347 20.21-.11.365-.224.728-.323 1.097z"/><path id="XMLID_587_" d="m450.88 187.815c1.859-1.87 2.93-4.44 2.93-7.08 0-2.63-1.07-5.21-2.93-7.07s-4.44-2.93-7.07-2.93-5.21 1.07-7.07 2.93c-1.859 1.86-2.93 4.44-2.93 7.07 0 2.64 1.07 5.21 2.93 7.08 1.86 1.86 4.44 2.92 7.07 2.92s5.209-1.06 7.07-2.92z"/><path id="XMLID_588_" d="m437.759 236.705c1.859-1.86 2.93-4.44 2.93-7.07s-1.07-5.21-2.93-7.07-4.431-2.93-7.07-2.93c-2.63 0-5.21 1.07-7.07 2.93-1.859 1.86-2.93 4.44-2.93 7.07 0 2.64 1.07 5.21 2.93 7.07s4.44 2.93 7.07 2.93c2.64 0 5.21-1.07 7.07-2.93z"/><path id="XMLID_589_" d="m424.649 285.605c1.86-1.86 2.92-4.44 2.92-7.07s-1.06-5.21-2.92-7.07c-1.87-1.86-4.439-2.93-7.08-2.93-2.63 0-5.21 1.07-7.069 2.93-1.86 1.86-2.931 4.44-2.931 7.07s1.07 5.21 2.931 7.07c1.859 1.86 4.439 2.93 7.069 2.93 2.641 0 5.221-1.07 7.08-2.93z"/><path id="XMLID_987_" d="m411.529 334.505c1.86-1.86 2.931-4.44 2.931-7.07s-1.07-5.21-2.931-7.07c-1.87-1.86-4.45-2.93-7.069-2.93-2.641 0-5.21 1.07-7.08 2.93-1.86 1.86-2.92 4.43-2.92 7.07 0 2.63 1.06 5.21 2.92 7.07 1.859 1.86 4.439 2.93 7.08 2.93 2.63 0 5.199-1.07 7.069-2.93z"/><path id="XMLID_1022_" d="m384.269 369.255c-1.86 1.87-2.93 4.44-2.93 7.08 0 2.63 1.069 5.21 2.93 7.07s4.43 2.93 7.07 2.93c2.63 0 5.21-1.07 7.069-2.93 1.86-1.86 2.931-4.44 2.931-7.07 0-2.64-1.07-5.21-2.931-7.08-1.869-1.86-4.439-2.92-7.069-2.92s-5.209 1.06-7.07 2.92z"/><path id="XMLID_1032_" d="m465.059 281.595c-2.63 0-5.21 1.07-7.07 2.93-1.859 1.86-2.93 4.44-2.93 7.07s1.07 5.21 2.93 7.07c1.86 1.87 4.44 2.93 7.07 2.93 2.64 0 5.21-1.06 7.07-2.93 1.87-1.86 2.93-4.44 2.93-7.07s-1.06-5.2-2.93-7.07c-1.86-1.86-4.43-2.93-7.07-2.93z"/></g></g></svg>