<svg id="Layer_1" height="512" viewBox="0 0 512 512" width="512" xmlns="http://www.w3.org/2000/svg" data-name="Layer 1"><path d="m388.248 239.979a16.589 16.589 0 1 0 -.071-12.685 16.482 16.482 0 0 0 .071 12.685zm11.039-8.149a4.624 4.624 0 0 1 6.014-2.518 4.57 4.57 0 0 1 2.528 5.96 4.623 4.623 0 0 1 -6.014 2.518 4.569 4.569 0 0 1 -2.528-5.961z"/><path d="m396.439 250.958a16.641 16.641 0 0 0 -21.638 9.1 16.591 16.591 0 0 0 15.358 22.842 16.637 16.637 0 0 0 15.4-10.322 16.568 16.568 0 0 0 -9.123-21.615zm-1.986 17.08a4.623 4.623 0 0 1 -6.015 2.517 4.567 4.567 0 0 1 -2.508-2.471 4.52 4.52 0 0 1 -.019-3.489 4.621 4.621 0 0 1 6.014-2.518 4.571 4.571 0 0 1 2.528 5.961z"/><path d="m383.062 283.723a16.64 16.64 0 0 0 -21.637 9.1 16.591 16.591 0 0 0 15.358 22.835 16.638 16.638 0 0 0 15.4-10.322 16.569 16.569 0 0 0 -9.124-21.615zm-1.986 17.08a4.622 4.622 0 0 1 -6.014 2.517 4.568 4.568 0 0 1 -2.527-5.96 4.624 4.624 0 0 1 6.014-2.518 4.569 4.569 0 0 1 2.527 5.961z"/><path d="m490.5 171.135-20.953-7.6 3.091-8.467a18.61 18.61 0 0 0 -11.13-23.824l-62.791-22.794a18.654 18.654 0 0 0 -23.856 11.1l-.807 2.212c-7.539-.167-19.786-1.918-24.6-8.737l.568-2.259a6 6 0 1 0 -11.639-2.924l-.215.856c-6.741.889-21.557 1.782-31.1-5.468l.285-2.286a6 6 0 0 0 -11.908-1.486l-.326 2.618c-4.9 2.638-17.759 7.762-33.238-.154v-4.321a6 6 0 0 0 -6-6 6 6 0 0 0 -6 6v4.453c-15.372 7.739-28.122 2.654-32.994.03l-.324-2.613a6 6 0 1 0 -11.909 1.476l.285 2.3c-9.6 7.324-24.363 6.4-31.1 5.48l-.215-.863a6 6 0 0 0 -11.643 2.905l.567 2.274c-4.82 6.815-17.063 8.566-24.6 8.732l-.807-2.212a18.652 18.652 0 0 0 -23.856-11.1l-62.785 22.776a18.609 18.609 0 0 0 -11.131 23.824l3.091 8.467-20.953 7.6a17.47 17.47 0 0 0 -10.454 22.37l75.06 205.65a17.49 17.49 0 0 0 22.395 10.424l20.973-7.612 2.27 6.218a18.633 18.633 0 0 0 23.855 11.1l62.788-22.78a18.611 18.611 0 0 0 11.131-23.825l-.96-2.629c.158.051.313.1.474.153 7.391 2.543 14.254 8.617 19.848 17.566a7.821 7.821 0 0 0 6.161 3.656c.152.009.3.014.454.014h.085s.062 0 .093 0a5.993 5.993 0 0 0 1.395-.17 7.778 7.778 0 0 0 4.484-2.737c6.865-8.553 14.166-14.672 21.8-18.3l-.893 2.446a18.611 18.611 0 0 0 11.14 23.826l62.788 22.789a18.633 18.633 0 0 0 23.855-11.1l2.27-6.218 20.973 7.612a17.49 17.49 0 0 0 22.395-10.424l75.06-205.65a17.47 17.47 0 0 0 -10.447-22.374zm-307.851-49.8c7.257 0 16.059-1.09 23.907-5.039l6.487 52.31c-8.5 6.733-18.411 5.542-23.164 4.4l-12.945-51.887c1.742.127 3.666.213 5.713.213zm-16.8 4.928 12.633 50.637c-2.312 3.524-6.037 5.7-11.335 6.607a32.1 32.1 0 0 1 -6.516.407l-18.392-50.391c6.842-.546 16.306-2.263 23.608-7.263zm-114.981 19.677a6.55 6.55 0 0 1 3.721-3.421l62.788-22.789a6.63 6.63 0 0 1 8.489 3.937l.147.4-75.4 26.819a6.5 6.5 0 0 1 .255-4.946zm53.546 252.36a5.491 5.491 0 0 1 -7.028-3.258l-75.061-205.655a5.47 5.47 0 0 1 3.271-6.972l2.825-1.025 81.123 215.044zm16.411-5.957-81.125-215.043 6.867-2.492 78.8 215.888zm10.979-19.01 51.262-19.8a6 6 0 0 0 -4.323-11.194l-51.054 19.719-5.231-14.332 50.324-18.866a6 6 0 1 0 -4.213-11.236l-50.226 18.826-5.148-14.1 49.341-18.332a6 6 0 0 0 -4.179-11.249l-49.277 18.303-5.189-14.219 47.666-17.775a6 6 0 0 0 -4.193-11.244l-47.588 17.747-5.165-14.152 47.414-17.1a6 6 0 0 0 -4.072-11.288l-47.453 17.116-4.828-13.228 49.49-18.446a6 6 0 1 0 -4.191-11.244l-49.417 18.418-5.154-14.122 47.546-18.163a6 6 0 0 0 -4.283-11.21l-47.378 18.1-5.2-14.238 46.584-17.382a6 6 0 1 0 -4.2-11.243l-46.5 17.352-8.245-22.59 75.4-26.819 83.327 228.3-74.751 28.579zm86.217 8.466a6.545 6.545 0 0 1 -3.721 3.42l-62.788 22.781a6.631 6.631 0 0 1 -8.489-3.937l-.209-.572 74.755-28.582.683 1.873a6.5 6.5 0 0 1 -.231 5.018zm-53.04-185.96c1.2-.084 2.471-.219 3.782-.43a31.314 31.314 0 0 0 13.078-5.043l40.736 163.274zm71.634 164.493-43.58-174.67a43.87 43.87 0 0 0 4.386.222 37.188 37.188 0 0 0 17.256-4.084l22.152 178.627c-.072-.038-.143-.066-.214-.099zm13.082 6.358-23.167-186.822a47.88 47.88 0 0 0 11.5 1.473 36.539 36.539 0 0 0 11.795-1.879zm.137-200.374c-9.033 5.257-19.9 2.359-24.923.5l-6.328-51.026a46.261 46.261 0 0 0 31.285-.634zm136.3-42.645a6.63 6.63 0 0 1 8.489-3.937l62.789 22.789a6.608 6.608 0 0 1 3.971 8.368l-75.4-26.819zm-40 2.577c7.307 5.012 16.783 6.733 23.632 7.282l-17.334 47.492c-3.933 1.8-12.482 4.244-18.988-4.265zm-40.694-9.957c7.851 3.954 16.657 5.045 23.918 5.045 2.038 0 3.953-.086 5.692-.215l-13.03 51.858c-4.647 1.147-14.555 2.414-23.109-4.369zm-43.567-1.228a46.3 46.3 0 0 0 31.535.734l-6.37 51.003c-5.084 1.869-16.073 4.808-25.2-.33zm-.173 254.813.13-190.347a37.311 37.311 0 0 0 11.71 1.809 49.671 49.671 0 0 0 11.878-1.519zm13.322-9.843 22.237-178.233a36.926 36.926 0 0 0 17.17 4.081 43.189 43.189 0 0 0 4.4-.228zm13.452-4.3 41.606-165.595a24.281 24.281 0 0 0 8.363 3.839 25.419 25.419 0 0 0 6.076.721 28.248 28.248 0 0 0 2.978-.163l-58.824 161.155zm80.508 48.331a6.631 6.631 0 0 1 -8.494 3.936l-62.788-22.785a6.609 6.609 0 0 1 -3.952-8.429l.683-1.873 74.755 28.587zm4.324-11.846-74.755-28.582 83.327-228.3 75.4 26.819-16.577 45.419-45.948-16.774a13.229 13.229 0 0 0 -16.877 7.741l-42.347 112.737a13.128 13.128 0 0 0 7.193 16.741l46.778 19.829zm63.278-173.369-42.968 117.712-46.211-19.59a1.158 1.158 0 0 1 -.643-1.473l42.348-112.742a1.194 1.194 0 0 1 1.525-.689zm-49.951 171.842 78.8-215.888 6.867 2.497-81.125 215.039zm103.042-201.3-75.061 205.647a5.491 5.491 0 0 1 -7.028 3.258l-5.13-1.862 81.123-215.044 2.825 1.025a5.47 5.47 0 0 1 3.271 6.972z"/></svg>